<svg xmlns="http://www.w3.org/2000/svg" viewBox="0 0 256 256" role="img" aria-labelledby="smartbillLogoTitle">
  <title id="smartbillLogoTitle">SmartBill logo</title>
  <defs>
    <linearGradient id="smartbillGradient" x1="0%" y1="0%" x2="100%" y2="100%">
      <stop offset="0%" stop-color="#667eea" />
      <stop offset="100%" stop-color="#764ba2" />
    </linearGradient>
  </defs>
  <rect width="256" height="256" rx="56" fill="url(#smartbillGradient)" />
  <path d="M72 72h112c13.255 0 24 10.745 24 24v64c0 13.255-10.745 24-24 24h-24l-28 24-4-24H72c-13.255 0-24-10.745-24-24V96c0-13.255 10.745-24 24-24Z" fill="#fff" opacity="0.96"/>
  <path d="M92 104h72M92 128h52M92 152h36" fill="none" stroke="#667eea" stroke-linecap="round" stroke-width="12"/>
  <circle cx="178" cy="152" r="18" fill="#10b981"/>
  <path d="m171 152 5 5 10-12" fill="none" stroke="#fff" stroke-linecap="round" stroke-linejoin="round" stroke-width="6"/>
</svg>
